<svg xmlns="http://www.w3.org/2000/svg" viewBox="0 0 200 50" fill="none">
  <!-- Paw Icon (Emerald-600) -->
  <path fill="#059669" d="M22.5 16.5C22.5 18.9853 20.4853 21 18 21C15.5147 21 13.5 18.9853 13.5 16.5C13.5 14.0147 15.5147 12 18 12C20.4853 12 22.5 14.0147 22.5 16.5Z"/>
  <path fill="#059669" d="M34.5 14.5C34.5 16.9853 32.4853 19 30 19C27.5147 19 25.5 16.9853 25.5 14.5C25.5 12.0147 27.5147 10 30 10C32.4853 10 34.5 12.0147 34.5 14.5Z"/>
  <path fill="#059669" d="M14.5 26.5C14.5 28.9853 12.4853 31 10 31C7.51472 31 5.5 28.9853 5.5 26.5C5.5 24.0147 7.51472 22 10 22C12.4853 22 14.5 24.0147 14.5 26.5Z"/>
  <path fill="#059669" d="M43.5 24.5C43.5 26.9853 41.4853 29 39 29C36.5147 29 34.5 26.9853 34.5 24.5C34.5 22.0147 36.5147 20 39 20C41.4853 20 43.5 22.0147 43.5 24.5Z"/>
  <path fill="#059669" d="M35.6 34.2C34.2 38.6 29.5 41.2 25.1 39.8C23.6 39.3 22.3 38.5 21.2 37.4C19.8 38.6 18.1 39.4 16.2 39.7C11.5 40.3 7.2 37.1 6.6 32.4C6.2 29.5 7.6 26.8 9.9 25.2C11.1 27.6 13.6 29.2 16.4 29.1C18.2 29 19.8 28.2 21 26.9C21.8 29.3 23.7 31.1 26.1 31.8C26.9 32.1 27.8 32.2 28.6 32.1C31.5 31.7 33.9 29.6 34.8 26.8C37.5 28.1 38.8 31.3 37.5 34.2H37.5Q36.55 33.9 35.6 34.2Z"/>

  <!-- Text "Pawnecta" (Slate-900) - Font: Outfit/Inter style bold -->
  <text x="50" y="34" font-family="system-ui, -apple-system, sans-serif" font-weight="900" font-size="28" fill="#0f172a" letter-spacing="-0.02em">Pawnecta</text>
</svg>
